<?xml version="1.0" encoding="iso-8859-1"?>
<!-- Generator: Adobe Illustrator 19.0.0, SVG Export Plug-In . SVG Version: 6.00 Build 0)  -->
<svg version="1.1" id="Capa_1" xmlns="http://www.w3.org/2000/svg" xmlns:xlink="http://www.w3.org/1999/xlink" x="0px" y="0px"
	 viewBox="0 0 468.293 468.293" style="enable-background:new 0 0 468.293 468.293;" xml:space="preserve">
<path style="fill:#44C4A1;" d="M438.816,213.132l-0.079-0.071h0.079C414.419,146.04,350.094,98.098,274.633,98.098
	c-75.46,0-139.786,47.942-164.182,114.963h0.142l-0.142,0.071C73.5,221.004,40.735,237.246,13.43,264.55
	C0.877,277.103-3.733,296.252,3.288,312.564c4.61,10.567,12.057,16.879,23.972,16.95h440.917
	C469.312,289.94,462.22,239.231,438.816,213.132z"/>
<g>
	<path style="fill:#EBF0F3;" d="M301.296,213.073h93.982c-15.183-39.672-50.383-70.18-93.982-80.583V213.073z"/>
	<path style="fill:#EBF0F3;" d="M281.062,129.217c-4.201-0.374-8.44-0.623-12.744-0.623c-58.379,0-108.1,35.199-126.961,84.479
		h139.704V129.217z"/>
</g>
<circle style="fill:#2F4859;" cx="94.37" cy="329.541" r="40.654"/>
<circle style="fill:#EBF0F3;" cx="94.37" cy="329.541" r="17.608"/>
<circle style="fill:#2F4859;" cx="402.457" cy="329.541" r="40.654"/>
<circle style="fill:#EBF0F3;" cx="402.457" cy="329.541" r="17.608"/>
<g>
	<path style="fill:#E56353;" d="M149.641,275.259l10.706-1.041c0.644,3.593,1.952,6.233,3.922,7.918
		c1.97,1.685,4.628,2.528,7.974,2.528c3.544,0,6.214-0.75,8.011-2.249c1.797-1.499,2.695-3.253,2.695-5.26
		c0-1.289-0.378-2.385-1.134-3.29c-0.756-0.905-2.076-1.691-3.959-2.361c-1.289-0.446-4.225-1.239-8.81-2.379
		c-5.898-1.462-10.037-3.259-12.416-5.39c-3.346-2.999-5.018-6.654-5.018-10.966c0-2.776,0.787-5.372,2.361-7.788
		c1.574-2.416,3.841-4.256,6.803-5.52c2.962-1.264,6.536-1.896,10.725-1.896c6.84,0,11.989,1.499,15.446,4.498
		c3.457,2.999,5.273,7.001,5.446,12.007l-11.004,0.483c-0.471-2.8-1.481-4.814-3.03-6.041c-1.549-1.227-3.872-1.84-6.97-1.84
		c-3.197,0-5.7,0.657-7.509,1.97c-1.165,0.843-1.747,1.97-1.747,3.383c0,1.289,0.545,2.392,1.636,3.308
		c1.388,1.165,4.758,2.379,10.111,3.643c5.353,1.264,9.312,2.571,11.877,3.922c2.565,1.351,4.572,3.197,6.022,5.539
		c1.45,2.342,2.175,5.235,2.175,8.68c0,3.123-0.867,6.047-2.602,8.773c-1.735,2.726-4.188,4.752-7.36,6.078
		c-3.172,1.326-7.125,1.989-11.859,1.989c-6.89,0-12.181-1.592-15.873-4.777C152.565,285.996,150.359,281.355,149.641,275.259z"/>
	<path style="fill:#E56353;" d="M252.352,292.991h-11.97l-4.758-12.379H213.84l-4.498,12.379h-11.673l21.226-54.497h11.635
		L252.352,292.991z M232.093,271.43l-7.509-20.223l-7.36,20.223H232.093z"/>
	<path style="fill:#E56353;" d="M258.486,292.991V238.94h11.004v44.869h27.36v9.182H258.486z"/>
	<path style="fill:#E56353;" d="M304.694,292.991v-54.497h40.408v9.219h-29.405v12.082h27.36v9.182h-27.36v14.832h30.446v9.182
		H304.694z"/>
</g>
<g>
</g>
<g>
</g>
<g>
</g>
<g>
</g>
<g>
</g>
<g>
</g>
<g>
</g>
<g>
</g>
<g>
</g>
<g>
</g>
<g>
</g>
<g>
</g>
<g>
</g>
<g>
</g>
<g>
</g>
</svg>
