<svg xmlns="http://www.w3.org/2000/svg" width="24" height="24" viewBox="0 0 24 24">
    <path fill="#FFF" fill-rule="nonzero" d="M17.981 0H6C2.705 0 0 2.705 0 6.019V18c0 3.295 2.705 6 6 6h11.981C21.295 24 24 21.295 24 17.981V6.019C24 2.705 21.295 0 17.981 0zM8.484 19.031H5.672V9.188h2.812v9.843zm0-11.25H5.672V4.97h2.812V7.78zm9.844 11.25h-2.812v-5.625c0-.775-.631-1.406-1.407-1.406-.775 0-1.406.631-1.406 1.406v5.625H9.891V9.188h2.812v.53c.737-.23 1.216-.53 2.11-.53 1.907.002 3.515 1.713 3.515 3.735v6.108z"/>
</svg>
