<svg xmlns="http://www.w3.org/2000/svg" width="24" height="24" viewBox="0 0 24 24">
    <g fill="#FFF" fill-rule="evenodd">
        <path d="M10.5 9v4.381l4.038-2.171z"/>
        <path fill-rule="nonzero" d="M17.981 0H6C2.705 0 0 2.705 0 6.019V18c0 3.295 2.705 6 6 6h11.981C21.295 24 24 21.295 24 17.981V6.019C24 2.705 21.295 0 17.981 0zm1.448 12.59a32.63 32.63 0 0 1-.115 2.534s-.133 1.066-.571 1.543c-.572.628-1.2.628-1.486.666-2.095.153-5.238.172-5.238.172s-3.905-.057-5.105-.172c-.324-.057-1.085-.038-1.657-.666-.457-.477-.571-1.543-.571-1.543s-.115-1.276-.115-2.534v-1.18c0-1.258.115-2.534.115-2.534s.133-1.066.571-1.543c.572-.628 1.2-.647 1.486-.685C8.857 6.495 12 6.476 12 6.476s3.143.02 5.238.172c.286.038.933.057 1.505.666.457.476.571 1.562.571 1.562s.115 1.276.115 2.534v1.18z"/>
    </g>
</svg>
