<svg height="24" viewBox="0 0 24 24" width="24" xmlns="http://www.w3.org/2000/svg" xmlns:xlink="http://www.w3.org/1999/xlink"><defs><path id="a" d="m4.08300781 6c.55228475 0 1 .44771525 1 1s-.44771525 1-1 1h-.08300781c-.55228475 0-1 .44771525-1 1v11c0 .5522847.44771525 1 1 1h16c.5522847 0 1-.4477153 1-1v-11.01586914c0-.54352047-.4406104-.98413086-.9841309-.98413086-.5522847 0-1-.44771525-1-1s.4477153-1 1-1c1.64809 0 2.9841309 1.33604089 2.9841309 2.98413086v11.01586914c0 1.6568542-1.3431458 3-3 3h-16c-1.65685425 0-3-1.3431458-3-3v-11c0-1.65685425 1.34314575-3 3-3zm1.91699219 11c.55228475 0 1 .4477153 1 1s-.44771525 1-1 1-1-.4477153-1-1 .44771525-1 1-1zm12.4956798.5388184c.287023 0 .5197011.2238576.5197011.5 0 .2761423-.2326781.5-.5197011.5h-9.96059792c-.28702295 0-.51970102-.2238577-.51970102-.5 0-.2761424.23267807-.5.51970102-.5zm-12.4956798-3.5388184c.55228475 0 1 .4477153 1 1s-.44771525 1-1 1-1-.4477153-1-1 .44771525-1 1-1zm12.4956798.5388184c.287023 0 .5197011.2238576.5197011.5 0 .2761423-.2326781.5-.5197011.5h-9.96059792c-.28702295 0-.51970102-.2238577-.51970102-.5 0-.2761424.23267807-.5.51970102-.5zm-6.4956798-13.5388184c3.3137085 0 6 2.6862915 6 6 0 2.38514309-1.4048983 4.5143597-3.5426802 5.4750729-.5037539.2263856-1.0956489.0015342-1.3220345-.5022197s-.0015342-1.0956489.5022197-1.3220345c1.4259386-.6408129 2.362495-2.06022621 2.362495-3.6508187 0-2.209139-1.790861-4-4-4s-4 1.790861-4 4c0 1.61211418.96220791 3.0471959 2.4172196 3.6749183.5071052.2187757.7408423.8072185.5220666 1.3143236-.2187758.5071051-.8072185.7408423-1.31432361.5220666-2.1816848-.9412244-3.62496259-3.09379613-3.62496259-5.5113085 0-3.3137085 2.6862915-6 6-6zm0 3.0279541c.2761424 0 .5.22385763.5.5v1.9540459l1.9713135.00017773c.2761424 0 .5.22385763.5.5 0 .27614238-.2238576.5-.5.5l-1.9713135-.00017773v2.0034126c0 .27614237-.2238576.5-.5.5s-.5-.22385763-.5-.5v-2.0034126l-1.94683838.00017773c-.27614237 0-.5-.22385762-.5-.5 0-.27614237.22385763-.5.5-.5l1.94683838-.00017773v-1.9540459c0-.27614237.2238576-.5.5-.5z"/><mask id="b" fill="#fff"><use fill="#fff" fill-rule="evenodd" xlink:href="#a"/></mask></defs><g fill="none" fill-rule="nonzero"><use fill="#979797" xlink:href="#a"/><path d="m0 0h24v24h-24z" fill="#35405a" mask="url(#b)"/></g></svg>