<svg id="Layer_1" enable-background="new 0 0 512 512" height="512" viewBox="0 0 512 512" width="512" xmlns="http://www.w3.org/2000/svg"><g id="XMLID_1669_"><g id="XMLID_492_"><path id="XMLID_1247_" d="m462 20h-161c-5.522 0-10 4.478-10 10s4.478 10 10 10h161c16.542 0 30 13.458 30 30v236.869h-76.453l-74.365-42.945c4.964-.586 8.818-4.802 8.818-9.924v-56c0-5.522-4.478-10-10-10h-56c-5.522 0-10 4.478-10 10v56c0 5.522 4.478 10 10 10h10.001l.004 42.869h-274.005v-236.869c0-16.542 13.458-30 30-30h161.005c5.522 0 10-4.478 10-10s-4.478-10-10-10h-161.005c-27.57 0-50 22.43-50 50v280c0 27.57 22.43 50 50 50h148v72h-24.333c-5.522 0-10 4.478-10 10s4.478 10 10 10h164.666c5.522 0 10-4.478 10-10s-4.478-10-10-10h-24.333v-42.706l24.95-24.595 40.309 69.816c1.326 2.297 3.51 3.973 6.072 4.659.852.229 1.721.341 2.588.341 1.74 0 3.467-.454 5-1.34l60.764-35.082c4.783-2.762 6.422-8.877 3.66-13.66l-16.994-29.433h21.651c27.57 0 50-22.43 50-50v-280c0-27.57-22.43-50-50-50zm-168 188h36v36h-36zm-274 142v-23.131h274.007l.006 53.131h-86.013-158c-16.542 0-30-13.458-30-30zm198 122v-72h76v72zm173.579-16.145-41.776-72.359c-1.548-2.682-4.251-4.494-7.319-4.91-.447-.061-.896-.09-1.342-.09-2.608 0-5.136 1.021-7.02 2.878l-20.107 19.821-.013-129.872 112.465 64.948-27.218 7.502c-2.985.823-5.421 2.982-6.595 5.847-1.175 2.865-.956 6.112.592 8.794l41.776 72.359zm70.421-75.855h-33.198l-11.768-20.383 37.784-10.415c3.887-1.071 6.75-4.372 7.262-8.37.512-3.999-1.427-7.914-4.918-9.931l-6.982-4.032h41.82v23.131c0 16.542-13.458 30-30 30z"/><path id="XMLID_1269_" d="m88 76c-20.953 0-38 17.047-38 38s17.047 38 38 38 38-17.047 38-38-17.047-38-38-38zm0 56c-9.925 0-18-8.075-18-18s8.075-18 18-18 18 8.075 18 18-8.075 18-18 18z"/><path id="XMLID_1272_" d="m162 114c0 20.953 17.047 38 38 38s38-17.047 38-38-17.047-38-38-38-38 17.047-38 38zm56 0c0 9.925-8.075 18-18 18s-18-8.075-18-18 8.075-18 18-18 18 8.075 18 18z"/><path id="XMLID_1276_" d="m312 152c20.953 0 38-17.047 38-38s-17.047-38-38-38-38 17.047-38 38 17.047 38 38 38zm0-56c9.925 0 18 8.075 18 18s-8.075 18-18 18-18-8.075-18-18 8.075-18 18-18z"/><path id="XMLID_1279_" d="m424 152c20.953 0 38-17.047 38-38s-17.047-38-38-38-38 17.047-38 38 17.047 38 38 38zm0-56c9.925 0 18 8.075 18 18s-8.075 18-18 18-18-8.075-18-18 8.075-18 18-18z"/><path id="XMLID_1282_" d="m88 188c-20.953 0-38 17.047-38 38s17.047 38 38 38 38-17.047 38-38-17.047-38-38-38zm0 56c-9.925 0-18-8.075-18-18s8.075-18 18-18 18 8.075 18 18-8.075 18-18 18z"/><path id="XMLID_1286_" d="m172 188c-5.522 0-10 4.478-10 10v56c0 5.522 4.478 10 10 10h56c5.522 0 10-4.478 10-10v-56c0-5.522-4.478-10-10-10zm46 56h-36v-36h36z"/><path id="XMLID_1293_" d="m424 264c20.953 0 38-17.047 38-38s-17.047-38-38-38-38 17.047-38 38 17.047 38 38 38zm0-56c9.925 0 18 8.075 18 18s-8.075 18-18 18-18-8.075-18-18 8.075-18 18-18z"/><path id="XMLID_1295_" d="m256 40.149c2.63 0 5.21-1.069 7.069-2.93 1.86-1.86 2.931-4.439 2.931-7.07 0-2.64-1.07-5.21-2.931-7.069-1.859-1.86-4.439-2.931-7.069-2.931s-5.21 1.07-7.07 2.931c-1.86 1.859-2.93 4.439-2.93 7.069 0 2.62 1.069 5.2 2.93 7.07 1.86 1.861 4.44 2.93 7.07 2.93z"/></g></g></svg>