<svg xmlns="http://www.w3.org/2000/svg" width="24" height="24" viewBox="0 0 24 24">
    <path fill="#FFF" fill-rule="nonzero" d="M17.981 0H6C2.705 0 0 2.705 0 6.019V18c0 3.295 2.705 6 6 6h11.981C21.295 24 24 21.295 24 17.981V6.019C24 2.705 21.295 0 17.981 0zm-.033 9.294l.009.382c0 3.901-2.968 8.396-8.396 8.396a8.35 8.35 0 0 1-4.523-1.326 5.921 5.921 0 0 0 4.369-1.221 2.956 2.956 0 0 1-2.757-2.05c.181.034.364.052.556.052.27 0 .53-.035.777-.102a2.954 2.954 0 0 1-2.367-2.893v-.038c.399.222.853.354 1.337.37a2.95 2.95 0 0 1-.914-3.938 8.374 8.374 0 0 0 6.082 3.083 2.951 2.951 0 0 1 5.03-2.69 5.975 5.975 0 0 0 1.874-.717 2.959 2.959 0 0 1-1.298 1.633 5.915 5.915 0 0 0 1.695-.464 5.965 5.965 0 0 1-1.474 1.523z"/>
</svg>
