<svg xmlns="http://www.w3.org/2000/svg" width="24" height="24" viewBox="0 0 24 24">
    <g fill="#35405A" fill-rule="nonzero">
        <path d="M4.426 9.793c0-3.988 3.357-7.21 7.481-7.21 4.125 0 7.482 3.222 7.482 7.21 0 2.67-1.305 5.394-3.457 8.065a26.79 26.79 0 0 1-3.08 3.22c-.142.125-.246.212-.306.26l-.639.523-.638-.522c-.06-.049-.164-.136-.306-.261a26.79 26.79 0 0 1-3.08-3.22c-2.152-2.67-3.457-5.395-3.457-8.065zm7.481 9.467a24.83 24.83 0 0 0 2.457-2.625c1.899-2.356 3.025-4.707 3.025-6.842 0-2.89-2.45-5.24-5.482-5.24-3.03 0-5.481 2.35-5.481 5.24 0 2.135 1.126 4.486 3.024 6.842a24.83 24.83 0 0 0 2.457 2.625z"/>
        <path d="M11.857 12.992c-1.846 0-3.342-1.473-3.342-3.29s1.496-3.29 3.342-3.29S15.2 7.884 15.2 9.701s-1.497 3.29-3.343 3.29zm0-1.832a1.47 1.47 0 0 0 1.482-1.458 1.47 1.47 0 0 0-1.482-1.459 1.47 1.47 0 0 0-1.481 1.459 1.47 1.47 0 0 0 1.481 1.458z"/>
    </g>
</svg>
