<?xml version="1.0" encoding="iso-8859-1"?>
<!-- Generator: Adobe Illustrator 19.0.0, SVG Export Plug-In . SVG Version: 6.00 Build 0)  -->
<svg version="1.1" id="Capa_1" xmlns="http://www.w3.org/2000/svg" xmlns:xlink="http://www.w3.org/1999/xlink" x="0px" y="0px"
	 viewBox="0 0 512 512" style="enable-background:new 0 0 512 512;" xml:space="preserve">
<g>
	<g>
		<path d="M511.584,157.92c-0.128-1.056-0.256-2.08-0.608-3.104C508.48,139.552,496.096,128,480,128h-91.2
			c1.888-6.144,3.2-12.256,3.2-18.272C392,66.112,356,32,310.016,32c-19.424,0-38.72,6.528-54.016,17.984
			C240.704,38.528,221.408,32,202.016,32C156,32,120,66.112,120,109.728c0,6.016,1.312,12.128,3.232,18.272H32
			c-16.096,0-28.48,11.552-30.976,26.816c-0.352,1.024-0.48,2.048-0.608,3.104C0.352,158.656,0,159.264,0,160v288
			c0,0.736,0.352,1.312,0.384,2.016c0.16,1.056,0.288,2.048,0.608,3.072C3.456,468.416,15.872,480,32,480h448
			c16.128,0,28.544-11.584,31.008-26.912c0.352-0.992,0.48-2.016,0.608-3.04c0.032-0.736,0.384-1.312,0.384-2.048V160
			C512,159.264,511.648,158.656,511.584,157.92z M202.016,64c16,0,31.776,6.816,42.176,18.208c6.048,6.624,17.6,6.624,23.648,0
			C278.208,70.816,293.984,64,310.016,64c28.032,0,50.016,20.096,50.016,45.728c0,29.12-52.064,77.664-103.936,111.328
			c-39.296-25.92-77.376-58.816-94.56-85.76c-0.288-0.448-0.544-0.928-0.864-1.344c-5.504-8.928-8.672-17.184-8.672-24.224
			C152,84.096,173.984,64,202.016,64z M140.032,160c31.808,44.128,91.968,83.776,107.424,93.536C250.08,255.2,253.024,256,256,256
			c2.912,0,5.824-0.768,8.416-2.368c9.632-5.952,74.464-47.072,107.808-93.632h98.144L256,331.488L41.632,160H140.032z M32,193.312
			L172.576,305.76L32,415.264V193.312z M42.048,448l156.224-121.696l47.744,38.208C248.928,366.848,252.48,368,256,368
			s7.072-1.152,10.016-3.488l47.744-38.208L469.952,448H42.048z M480,415.264L339.424,305.76L480,193.312V415.264z"/>
	</g>
</g>
<g>
</g>
<g>
</g>
<g>
</g>
<g>
</g>
<g>
</g>
<g>
</g>
<g>
</g>
<g>
</g>
<g>
</g>
<g>
</g>
<g>
</g>
<g>
</g>
<g>
</g>
<g>
</g>
<g>
</g>
</svg>
