<svg xmlns="http://www.w3.org/2000/svg" xmlns:xlink="http://www.w3.org/1999/xlink" width="700" height="403" viewBox="0 0 700 403">
    <defs>
        <linearGradient id="a" x1="38.867%" x2="38.867%" y1="84.559%" y2="0%">
            <stop offset="0%" stop-color="#FFF"/>
            <stop offset="100%" stop-color="#F2F2F2"/>
        </linearGradient>
        <path id="b" d="M0 0h23.281l-2.017 15.763H2.018z"/>
        <path id="c" d="M22.515 4.474H10.768"/>
        <linearGradient id="d" x1="33.145%" x2="38.867%" y1="85.509%" y2="9.202%">
            <stop offset="0%" stop-color="#FFF"/>
            <stop offset="100%" stop-color="#DFE2EC"/>
        </linearGradient>
        <linearGradient id="e" x1="37.921%" x2="42.022%" y1="89.486%" y2="4.633%">
            <stop offset="0%" stop-color="#FFF"/>
            <stop offset="100%" stop-color="#DFE2EC"/>
        </linearGradient>
        <linearGradient id="f" x1="38.867%" x2="38.867%" y1="84.559%" y2="0%">
            <stop offset="0%" stop-color="#FFF"/>
            <stop offset="100%" stop-color="#F2F2F2"/>
        </linearGradient>
        <linearGradient id="g" x1="38.867%" x2="38.867%" y1="84.559%" y2="0%">
            <stop offset="0%" stop-color="#FFF"/>
            <stop offset="100%" stop-color="#F2F2F2"/>
        </linearGradient>
    </defs>
    <g fill="none" fill-rule="evenodd">
        <path fill="url(#a)" d="M0 381.31c103.527-32.636 215.422-48.954 335.684-48.954 185.919 0 307.095 16.318 363.53 48.954"/>
        <path fill="#E8EAF1" d="M557.03 313.649s2.684-7.343 4.05-7.597c1.368-.255 1.071 3.191 1.071 3.191s.283 2.633 1.337-1.043 2.236-5.19 6.903-6.604c-1.347 2.074-6.626 6.46-11.114 20.8s-2.247-8.747-2.247-8.747z"/>
        <path fill="#F4F5F8" d="M572.023 308.463c1.66 3.174.124 8.091.124 8.091l-13.07 5.746 1.564-4.796s.354-.77.972-2.004c1.637-3.27 5.122-9.795 8.75-13.834.076-.013 0 3.624 1.66 6.797z"/>
        <path stroke="#DFE2EC" stroke-linecap="round" stroke-width=".605" d="M567.93 304.886s-2.603 3.605-4.64 6.895c-2.038 3.29-4.416 10.346-4.416 10.346M561.938 315.373s5.107 2.024 7.864-3.635M560.379 310.47s-1.534 5.393.05 7.013"/>
        <path fill="#E8EAF1" d="M550.444 333.064s-3.775-.92-5.764-5.276c-1.989-4.357 1.054-1.146 1.054-1.146s2.931 2.673.162-2.621c-1.19-2.177-1.693-4.945-1.643-6.452.05-1.507.944-2.697 2.267-.4 1.323 2.295 2.467 1.376 1.67-.532-.797-1.908-1.573-6.925 1.15-9.345.126.017 2.918 2.313 2.014 10.916-.904 8.603 1.212 13.068 3.146 14.942"/>
        <path fill="#F4F5F8" d="M549.329 307.285s3.061-1.592 5.526 3.788 1.728 1.337 1.728 1.337-.755-2.887 1.674-.664c2.43 2.224.24 7.704.24 7.704s-.97 2.129 1.038 1.064c2.008-1.064 2.704.805 1.124 4.137-1.579 3.332-1.275 8.45-1.275 8.45l-5.107.115s-1.985-1.381-2.98-5.253c-.996-3.872-.572-5.295-.309-9.3.905-8.139-1.66-11.378-1.66-11.378z"/>
        <path stroke="#DFE2EC" stroke-linecap="round" stroke-width=".605" d="M550.66 310.585s1.332 2.237.28 10.389c-1.05 8.151 1.453 10.52 4.074 12.338M555.276 316.632s.413 4.015-4.348 6.539M547.333 321.145s.329 3.762 3.28 6.002M556.98 325.251s-1.469 5.085-4.99 4.88"/>
        <path fill="#E8EAF1" d="M557.324 333.486s-6.82-16.459 20.73-21.714c-2.023 1.858-7.08 7.115-11.933 10.768-4.853 3.654-7.946 8.067-6.785 10.946"/>
        <path fill="#F4F5F8" d="M578.097 311.751s1.441 7.717-4.171 12.533c-4.684 3.762-.963 2.609-.963 2.609s4.34-1.553-4.698 6.542c-3.445.066-8.89.02-8.89.02s-3.068-1.973-.33-5.572c2.74-3.599 19.052-16.132 19.052-16.132z"/>
        <path stroke="#DFE2EC" stroke-linecap="round" stroke-width=".605" d="M574.571 314.493s-6.324 5.221-10.092 8.118c-3.768 2.896-8.394 7.93-4.834 11.177M564.805 319.22s-2.981 4.079-2.771 5.354M573.679 320.47s-2.493 3.271-9.62 2.638M568.438 327.659s-3.884 2.275-9.273.748"/>
        <path fill="#F8F9FA" d="M546.713 332.909h23.282l-2.018 15.762h-19.245z"/>
        <g transform="translate(546.667 332.878)">
            <use fill="#DFE2EC" xlink:href="#b"/>
            <use stroke="#FAFBFC" stroke-linecap="round" stroke-width="1.089" xlink:href="#c"/>
        </g>
        <path fill="url(#d)" d="M544.006 255.326V184.91h34.902v-27.747h10.002l-1-15.723 13.002-6.475 15.003 6.475v12.023h36.758l3.25 30.523 15.003 4.624v66.716z" opacity=".357"/>
        <path fill="url(#e)" d="M45.416 235.75v-64.055l20.018-1.017v-26.435l11.775-3.05 1.731-57.059s8.62 17.131 21.073 20.993c12.451 3.862 8.99 18.78 8.99 18.78v13.218s21.379 1.577 30.28 0a293.571 293.571 0 0 1 16.82-2.452v36.005l17.663 5.084v21.056" opacity=".357" transform="matrix(-1 0 0 1 219.182 0)"/>
        <circle cx="502" cy="18" r="18" fill="#FEDD00"/>
        <path fill="url(#f)" d="M480.818 34.244s5.668-8.918 12.798-11.694c7.13-2.777 14.995-2.33 14.995-2.33s.36-17.385 27.274-19.94c26.912-2.557 31.27 13.277 31.27 13.277s11.945-5.411 23.143-3.972c11.199 1.44 15.967 9 15.967 9s6.136-3.994 15.47 0c9.332 3.993 11.378 11.487 11.378 11.487s11.664 0 11.664 8.442-8.3 6.267-8.3 6.267"/>
        <path fill="url(#g)" d="M118.477 21.302s3.526-5.547 7.96-7.274c4.436-1.728 9.329-1.45 9.329-1.45S135.99 1.764 152.732.174c16.741-1.59 19.452 8.26 19.452 8.26s7.43-3.367 14.397-2.471c6.966.895 9.932 5.598 9.932 5.598s3.817-2.484 9.623 0c5.805 2.484 7.078 7.146 7.078 7.146s7.256 0 7.256 5.251-5.163 3.898-5.163 3.898" transform="matrix(-1 0 0 1 338.946 0)"/>
        <rect width="241.369" height="173.527" x="238.166" y="168.268" fill="#D6DAE2" rx="9"/>
        <rect width="179.968" height="159.504" x="260" y="84" fill="#F7F7F7" rx="9"/>
        <text fill="#C6CBDA" font-family="OpenSans-Bold, Open Sans" font-size="22" font-weight="bold">
            <tspan x="313.6" y="114">CHECK</tspan>
        </text>
        <path fill="#FFF" d="M274.471 128.711h148.096v16.866H274.471z"/>
        <path fill="#D6DAE2" d="M294.217 156.229h108.604v12.368H294.217z"/>
        <g fill="#D6DAE2" fill-rule="nonzero">
            <path d="M286.44 139.071l3.068 3.656c.158.187.09.503-.15.705-.24.202-.563.213-.72.025l-3.147-3.75a4.002 4.002 0 0 1-4.296-6.675 4 4 0 0 1 5.246 6.039zm-.745-.677a3 3 0 1 0-3.857-4.596 3 3 0 0 0 3.857 4.596z"/>
        </g>
        <path fill="#E8EAF1" d="M464.133 304.017v34.274a7.901 7.901 0 0 0 6.332 7.743l-.018.155H229.268a9 9 0 0 1-9-9V202.288a7.2 7.2 0 0 1 7.2-7.2h172.184l12.363-8.789a9 9 0 0 1 5.214-1.665h39.072a7.2 7.2 0 0 1 7.2 7.2v110.797l.632 1.386z"/>
        <g transform="translate(458.11 252.097)">
            <ellipse cx="20.733" cy="18.641" fill="#FEDD00" rx="20.733" ry="18.641"/>
            <path fill="#ECC7BB" d="M27.503 28.405s-.086 3.548 2.611 8.555c.582 1.079 1.452 2.106 2.612 3.08-.785 4.148-1.292 6.222-1.52 6.222-.228 0-4.599.557-13.112 1.672l-6.102-3.746v-6.765l2.155-2.904 13.356-6.114z"/>
            <path fill="#FEDD00" d="M13.622 40.808c-4.903.055-8.057 1.99-9.462 5.804-1.405 3.814-1.405 11.411 0 22.79l9.462-8.553c1.223 5.472 1.684 9.622 1.383 12.45-.3 2.829-1.531 5.913-3.692 9.254l25.328-9.254v-6.774h8.534c1.83-10.269 1.83-17.493 0-21.674-1.832-4.182-6.342-6.1-13.53-5.754-.1 3.39-1.867 5.307-5.304 5.754-3.436.446-7.676-.902-12.72-4.043z"/>
            <path fill="#222" d="M29.126 137.588l-2.324 8.992c1.263 2.882 2.59 4.323 3.981 4.323 1.392 0 2.697-1.441 3.917-4.323l-1.452-8.992h-4.122zM66.603 119.835l-.309 2.089c4.262 5.117 6.19 7.675 5.781 7.675 0 0 .993-.023.993-.384 0-.216-.443-1.78-1.329-4.689l5.433 4.364c5.063-2.836 7.686-4.586 7.87-5.25.183-.666-1.883-.93-6.2-.797l-12.239-3.008z"/>
            <path fill="#F2D0C5" d="M17.676 35.497c.482 0 2.528 2.035 5.295 1.76 1.845-.184 4.746-2.928 8.704-8.23.085-1.227.085-2.084 0-2.572s-.886-4.226-2.403-11.214l-10.227-1.038-6.648 5.526-3.367 6 1.705 7.127c4.305 1.76 6.619 2.641 6.94 2.641zM9.356 86.991s-1.082-5.08.7-6.943c1.188-1.242 10.189-6.03 27.002-14.36h7.516c0 2.568-.797 4.692-2.39 6.371-2.39 2.52-32.828 14.932-32.828 14.932z"/>
            <path fill="#000" d="M20.808 44.794l-.594-2.147a1 1 0 0 1 .885-1.263l6.034-.476a1 1 0 0 1 1.07.871l1.32 10.461a2 2 0 0 1-1.66 2.224l-3.48.571-2.708-2.653-.867-7.588z"/>
            <path fill="#F2D0C5" d="M61.358 111.502l5.58 5.371v3.498c2.16.703 3.763 1.325 4.81 1.867 1.048.541 2.769 1.516 5.164 2.923 1.87-1.169 2.557-1.84 2.061-2.016-.496-.176-1.407-.62-2.733-1.333l-10.069-13.517-4.813 3.207zM29.716 125.16c-.2 4.514-.433 7.775-.7 9.783-.266 2.009-.675 5.257-1.227 9.746h5.201a56.356 56.356 0 0 1 0-9.746 59.602 59.602 0 0 1 1.71-9.782h-4.984z"/>
            <path fill="#0064D2" d="M10.993 81.996c-3.429 4.978-2.364 8.66 3.194 11.045 5.558 2.384 10.297 2.09 14.215-.883v33.003h6.448c2.952-9.69 4.792-17.102 5.523-22.238.73-5.135.487-8.962-.728-11.478l21.166 20.018 5.483-4.05C59.096 95.884 52.707 86.87 47.13 80.376c-5.579-6.496-9.357-9.257-11.335-8.284l-24.801 9.905z"/>
            <path fill="#F2D0C5" d="M29.903 44.625c-.85-.188-3.07.673-6.661 2.584-1.546-2.842-2.554-4.053-3.026-3.632-.471.42-.049 3.35 1.267 8.785-3.948 3-6.9 5.25-8.857 6.754-1.957 1.503-5.118 4.228-9.482 8.176-.275 3.442.953 4.956 3.683 4.542 4.094-.621 5.599-3.457 8.438-6.002 3.895-3.494 7.076-8.441 9.831-10.744 7.143-5.971 6.054-2.682 7.29-5.03 1.237-2.349-1.208-5.15-2.483-5.433z"/>
            <path fill="#222" d="M30.523 26.667c-.491-1.315-.517-1.455-.874-2.99-.358-1.535.394-3.77-2.442-5.51-1.89-1.16-2.925-1.832-3.104-2.015-5.143 3.697-8.114 7.647-8.915 11.85-.8 4.204.5 6.654 3.903 7.35a170.116 170.116 0 0 0-2.16 6.141c-.97 2.947 5.692 6.966-7.5 6.384-13.193-.582-5.074-22.38-2.19-31.725 1.923-6.23 6.952-8.894 15.086-7.992 2.651-.075 4.769.29 6.354 1.094 2.377 1.206 4.739 2.782 5.786 8.223.698 3.627-.168 7.477-2.596 11.551a8.27 8.27 0 0 1-1.348-2.36z"/>
        </g>
        <g fill="#F7F7F7">
            <path d="M320.318 301.76c-7.179 0-13-5.82-13-13s5.821-13 13-13c7.18 0 13 5.82 13 13s-5.82 13-13 13m31.513-20.314h-6.458c-.53-1.84-1.25-3.6-2.149-5.247l4.55-4.55a2.487 2.487 0 0 0 0-3.517l-6.826-6.826a2.488 2.488 0 0 0-3.52 0l-4.524 4.525a25.874 25.874 0 0 0-5.27-2.19v-6.393a2.488 2.488 0 0 0-2.489-2.488h-9.653a2.488 2.488 0 0 0-2.488 2.488v6.393a25.845 25.845 0 0 0-5.27 2.19l-4.526-4.525a2.488 2.488 0 0 0-3.518 0l-6.826 6.826a2.486 2.486 0 0 0 0 3.518l4.55 4.549a25.86 25.86 0 0 0-2.15 5.247h-6.458a2.487 2.487 0 0 0-2.487 2.488v9.653a2.488 2.488 0 0 0 2.487 2.487h6.508a25.947 25.947 0 0 0 2.165 5.182l-4.615 4.615a2.486 2.486 0 0 0 0 3.517l6.826 6.827c.971.97 2.546.97 3.518 0l4.638-4.64a25.941 25.941 0 0 0 5.158 2.125v6.573a2.487 2.487 0 0 0 2.488 2.487h9.653a2.487 2.487 0 0 0 2.488-2.487V313.7a25.951 25.951 0 0 0 5.158-2.124l4.638 4.639a2.49 2.49 0 0 0 3.519 0l6.825-6.827a2.487 2.487 0 0 0 0-3.517l-4.614-4.615a25.909 25.909 0 0 0 2.164-5.182h6.508a2.488 2.488 0 0 0 2.488-2.487v-9.653a2.488 2.488 0 0 0-2.488-2.488M377.935 262.618a9.12 9.12 0 1 1 0-18.24 9.12 9.12 0 0 1 0 18.24m21.764-14.763h-4.558a18.278 18.278 0 0 0-1.517-3.704l3.211-3.211a1.756 1.756 0 0 0 0-2.484l-4.818-4.818a1.756 1.756 0 0 0-2.484 0l-3.194 3.195a18.264 18.264 0 0 0-3.72-1.546v-4.513c0-.97-.786-1.756-1.757-1.756h-6.814c-.97 0-1.755.786-1.755 1.756v4.513c-1.307.38-2.553.9-3.721 1.546l-3.195-3.195a1.756 1.756 0 0 0-2.483 0l-4.818 4.818a1.755 1.755 0 0 0 0 2.484l3.211 3.211a18.254 18.254 0 0 0-1.517 3.704h-4.559c-.97 0-1.755.786-1.755 1.756v6.814c0 .97.786 1.756 1.755 1.756h4.594c.38 1.283.894 2.508 1.528 3.658l-3.257 3.257a1.755 1.755 0 0 0 0 2.483l4.818 4.818a1.757 1.757 0 0 0 2.483 0l3.274-3.274a18.312 18.312 0 0 0 3.642 1.5v4.639c0 .97.786 1.756 1.755 1.756h6.814c.97 0 1.757-.786 1.757-1.756v-4.64a18.318 18.318 0 0 0 3.64-1.5l3.274 3.275a1.757 1.757 0 0 0 2.484 0l4.818-4.818a1.755 1.755 0 0 0 0-2.483l-3.257-3.257a18.289 18.289 0 0 0 1.527-3.658h4.594c.97 0 1.757-.787 1.757-1.756v-6.814c0-.97-.786-1.756-1.757-1.756"/>
        </g>
        <g>
            <path d="M196 275H79v91h117z"/>
            <path fill="#B0B4BF" d="M129.532 319.528l-6.654-6.84-8.528.954 10.523 11.903 8.309.39z"/>
            <path fill="#F2D0C5" d="M94.986 355.105l-5.662-3.383-2.462 4.2v6.52l9.632-1.03-1.508-6.307z"/>
            <path fill="#C8CBD4" d="M82.889 340.939h-2.667c-.355 3.565-.355 6.62 0 9.167.355 2.546 1.796 7.006 4.32 13.38h2.16l-3.813-22.547z"/>
            <path fill="#222" d="M92.227 353.49c-1.854-2.574-3.099-4.151-3.734-4.733-.952-.872-4.296-7.532-5.484-7.687-1.189-.155-1.318 3.335-1.318 6.8 0 3.464 3.22 14.42 4.358 15.549.758.753 2.3.35 4.629-1.211-1.88-.83-2.609-2.544-2.185-5.143.424-2.598 1.669-3.79 3.734-3.575z"/>
            <path fill="#0064D2" d="M153.195 351.513l-12.058-11.185-11.284 11.185-13.736.603c9.158-12.012 16.124-19.032 20.9-21.058 4.775-2.026 15.802 1.189 33.08 9.645l-1.196 8.235-15.706 2.575z"/>
            <path fill="#0064D2" d="M191.703 357.64c-.15 0 .707 7.033-12.656 7.425-9.075.266-73.073 1.352-82.98-3.192-1.456-.669-1.23-1.413-1.23-3.532 0-1.81-.638-3.767.661-4.516 1.58-.91 20.72-2.114 57.42-3.608l18.275-1.577c14 6 20.836 9 20.51 9z"/>
            <path fill="#F2D0C5" d="M146.92 289.739l1.566 8.528 2.462.648c1.237 2.632 2.228 4.155 2.973 4.568.745.414 2.14.215 4.184-.595l1.092 3.208 9.377-9.175-10.469-13.649-11.184 2.203v4.264zM137.92 325.98c-1.684-1.862-3.025-3.096-4.025-3.702-1.499-.909-4.216-2.839-4.81-2.839-.596 0 .03 1.82.52 2.84.488 1.019 1.878 1.117 1.743 1.882-.134.766-.658 1.418-2.264 1.089-1.606-.329-1.302-1.96-2.804-2.54-1.001-.388-2.258-.388-3.77 0 3.678 4.188 6.359 6.7 8.042 7.533 1.682.833 4.636 1.111 8.86.835l2.014-3.522-3.506-1.577z"/>
            <path fill="#000" d="M168.408 296.81c.173-2.835.334-4.867.481-6.096.26-2.169.928-4.208.8-5.633-.237-2.635-1.19-4.592-2.862-5.87-1.521-1.862-4.007-2.962-7.456-3.301-3.45-.34-6.895.761-10.335 3.3-2.07 1.43-3.105 3.387-3.105 5.871 0 2.485.348 4.121 1.044 4.909 2.627-2.386 4.965-3.223 7.014-2.512 3.074 1.067 3.296 5.968 4.201 6.405.905.438-.2-4.268.649-4.82.848-.55 2.579 1.102 3.445 2.16.578.706.744 1.593.5 2.66l5.624 2.926z"/>
            <path fill="#FEDD00" d="M183.07 305.88c6.666 4.68 10.74 13.268 12.227 25.764 1.485 12.496.299 21.08-3.56 25.752-7.643 0-13.33-.934-17.059-2.801-5.594-2.802-6.928-5.777-7.315-8.446-.258-1.778.773-4.235 3.093-7.368l-31.873-11.283v-3.742l15.926.588c1.906-7.232 4.056-12.464 6.448-15.699 3.588-4.852 4.447-4.557 10.263-5.408 3.877-.567 7.827.314 11.85 2.644z"/>
            <path fill="#F1D209" d="M139.427 333.49v-5.583l21.925 1.01c0-10.7.435-16.778 1.305-18.237 1.306-2.188 4.23-6.311 8.182-5.308 3.953 1.004 7.043 2.058 7.043 9.173 0 7.116-2.827 22.34-7.043 23.73-2.81.926-11.032-.103-24.664-3.088l-6.748-1.697z"/>
            <path fill="#F1D209" d="M158.623 311.841c0-.568-1.758-3.688 4.635-12.232 1.516-2.026 5.554-3.583 12.114-4.672 1.984.24 3.316.757 3.996 1.551 1.02 1.192-1.475 1.69 0 3.121s4.37-.39 5.287 2.005c.611 1.597-.395 2.741-3.02 3.434-15.342 5.264-23.012 7.529-23.012 6.793z"/>
            <path fill="#FEDD00" d="M169.976 285.728c-8.279.379-16.404.346-24.374-.098.544-7.3 4.55-10.949 12.016-10.949 6.08 0 12.86 4.591 12.358 11.047z"/>
            <path fill="#0064D2" d="M170.062 284.84c-2.812 1.074-11.996 1.074-11.408 1.074.59 0 10.641 4.411 21.28 2.642 4.06-.676-2.525-3.23-9.872-3.715z"/>
        </g>
        <path fill="#C6CBDA" d="M148.45 260.183l1.772 5.86-7.765-2.237a15.75 15.75 0 0 1-4.728.718c-7.906 0-14.316-5.762-14.316-12.87 0-7.11 6.41-12.872 14.316-12.872 7.907 0 14.316 5.763 14.316 12.871 0 3.272-1.358 6.259-3.594 8.53z"/>
        <path fill="#FFF" fill-rule="nonzero" d="M140.073 253.725l4.043 4.107c.23.265.083.769-.329 1.127-.411.357-.931.433-1.16.169l-4.008-4.071a6.001 6.001 0 0 1-7.207-9.56 6 6 0 0 1 8.661 8.228zm-1.772-.303a4.5 4.5 0 1 0-5.905-6.793 4.5 4.5 0 0 0 5.905 6.793z"/>
        <g>
            <path fill="#FEDD00" d="M248.88 301.834v49.532c0 2.988-2.26 5.415-5.05 5.415h-38.285c-2.783 0-5.044-2.427-5.044-5.415v-49.532c0-2.996 2.26-5.414 5.044-5.414h38.285c2.79 0 5.05 2.418 5.05 5.414z"/>
            <path fill="#FFF" d="M229.638 335.477l12.33 5.162-3.467 8.153-12.33-5.162z"/>
            <path fill="#FEDD00" d="M204.45 305.297h35.544-35.543z"/>
            <path fill="#B0B4BF" d="M216.674 361.22h-8.65c-1.423 0-2.586-1.113-2.586-2.494v-1.945h13.822v1.945c0 1.381-1.162 2.494-2.586 2.494zM242.344 361.22h-8.648c-1.432 0-2.588-1.113-2.588-2.494v-1.945h13.822v1.945c0 1.381-1.154 2.494-2.586 2.494z"/>
            <path fill="#BFC6CF" d="M231.228 286.656h-17.033c-1.565 0-2.833-1.19-2.833-2.66 0-1.476 1.268-2.666 2.833-2.666h17.033c1.566 0 2.842 1.19 2.842 2.667 0 1.468-1.276 2.659-2.842 2.659z"/>
            <path fill="#D3D4D7" d="M216.298 296.42h1.975v-9.764h-1.975zM227.159 296.42h1.974v-9.764h-1.974z"/>
        </g>
    </g>
</svg>
